<mxfile host="app.diagrams.net" modified="2023-08-30T16:28:43.537Z" agent="Mozilla/5.0 (Windows NT 10.0; Win64; x64) AppleWebKit/537.36 (KHTML, like Gecko) Chrome/116.0.0.0 Safari/537.36" etag="-XltAEmtmJ_bmZpJko9e" version="21.7.1" type="github">
  <diagram name="第 1 页" id="4sWMDAJXvvsexHeZOBYL">
    <mxGraphModel dx="1816" dy="517" grid="1" gridSize="10" guides="1" tooltips="1" connect="1" arrows="1" fold="1" page="1" pageScale="1" pageWidth="827" pageHeight="1169" math="0" shadow="0">
      <root>
        <mxCell id="0" />
        <mxCell id="1" parent="0" />
        <mxCell id="pbTTSZvQgbymL4f0ZY5r-1" value="" style="swimlane;startSize=0;" vertex="1" parent="1">
          <mxGeometry x="90" y="70" width="390" height="400" as="geometry">
            <mxRectangle x="270" y="80" width="50" height="40" as="alternateBounds" />
          </mxGeometry>
        </mxCell>
        <mxCell id="pbTTSZvQgbymL4f0ZY5r-5" value="&lt;b&gt;健康管理App&lt;/b&gt;" style="text;html=1;align=center;verticalAlign=middle;resizable=0;points=[];autosize=1;strokeColor=none;fillColor=none;" vertex="1" parent="pbTTSZvQgbymL4f0ZY5r-1">
          <mxGeometry x="150" y="10" width="90" height="30" as="geometry" />
        </mxCell>
        <mxCell id="pbTTSZvQgbymL4f0ZY5r-4" value="登陆" style="ellipse;whiteSpace=wrap;html=1;" vertex="1" parent="pbTTSZvQgbymL4f0ZY5r-1">
          <mxGeometry x="60" y="70" width="90" height="50" as="geometry" />
        </mxCell>
        <mxCell id="pbTTSZvQgbymL4f0ZY5r-17" value="实时数据查看" style="ellipse;whiteSpace=wrap;html=1;" vertex="1" parent="pbTTSZvQgbymL4f0ZY5r-1">
          <mxGeometry x="60" y="150" width="90" height="50" as="geometry" />
        </mxCell>
        <mxCell id="pbTTSZvQgbymL4f0ZY5r-18" value="历史数据查看" style="ellipse;whiteSpace=wrap;html=1;" vertex="1" parent="pbTTSZvQgbymL4f0ZY5r-1">
          <mxGeometry x="60" y="230" width="90" height="50" as="geometry" />
        </mxCell>
        <mxCell id="pbTTSZvQgbymL4f0ZY5r-19" value="历史数据分析报告" style="ellipse;whiteSpace=wrap;html=1;" vertex="1" parent="pbTTSZvQgbymL4f0ZY5r-1">
          <mxGeometry x="55" y="320" width="100" height="50" as="geometry" />
        </mxCell>
        <mxCell id="pbTTSZvQgbymL4f0ZY5r-21" style="edgeStyle=entityRelationEdgeStyle;rounded=0;orthogonalLoop=1;jettySize=auto;html=1;" edge="1" parent="1" source="pbTTSZvQgbymL4f0ZY5r-2" target="pbTTSZvQgbymL4f0ZY5r-17">
          <mxGeometry relative="1" as="geometry" />
        </mxCell>
        <mxCell id="pbTTSZvQgbymL4f0ZY5r-22" style="edgeStyle=entityRelationEdgeStyle;rounded=0;orthogonalLoop=1;jettySize=auto;html=1;entryX=0;entryY=0.5;entryDx=0;entryDy=0;" edge="1" parent="1" source="pbTTSZvQgbymL4f0ZY5r-2" target="pbTTSZvQgbymL4f0ZY5r-4">
          <mxGeometry relative="1" as="geometry" />
        </mxCell>
        <mxCell id="pbTTSZvQgbymL4f0ZY5r-23" style="edgeStyle=entityRelationEdgeStyle;rounded=0;orthogonalLoop=1;jettySize=auto;html=1;entryX=0;entryY=0.5;entryDx=0;entryDy=0;" edge="1" parent="1" source="pbTTSZvQgbymL4f0ZY5r-2" target="pbTTSZvQgbymL4f0ZY5r-18">
          <mxGeometry relative="1" as="geometry" />
        </mxCell>
        <mxCell id="pbTTSZvQgbymL4f0ZY5r-24" style="edgeStyle=entityRelationEdgeStyle;rounded=0;orthogonalLoop=1;jettySize=auto;html=1;entryX=0;entryY=0.5;entryDx=0;entryDy=0;" edge="1" parent="1" source="pbTTSZvQgbymL4f0ZY5r-2" target="pbTTSZvQgbymL4f0ZY5r-19">
          <mxGeometry relative="1" as="geometry" />
        </mxCell>
        <mxCell id="pbTTSZvQgbymL4f0ZY5r-2" value="消费者" style="shape=umlActor;verticalLabelPosition=bottom;verticalAlign=top;html=1;outlineConnect=0;" vertex="1" parent="1">
          <mxGeometry x="-110" y="180" width="60" height="90" as="geometry" />
        </mxCell>
        <mxCell id="pbTTSZvQgbymL4f0ZY5r-11" value="穿戴设备" style="shape=umlActor;verticalLabelPosition=bottom;verticalAlign=top;html=1;outlineConnect=0;" vertex="1" parent="1">
          <mxGeometry x="580" y="160" width="30" height="60" as="geometry" />
        </mxCell>
      </root>
    </mxGraphModel>
  </diagram>
</mxfile>
